<?xml version="1.0" encoding="UTF-8" standalone="no"?><!DOCTYPE svg PUBLIC "-//W3C//DTD SVG 1.1//EN" "http://www.w3.org/Graphics/SVG/1.1/DTD/svg11.dtd"><svg width="100%" height="100%" viewBox="0 0 4167 4167" version="1.1" xmlns="http://www.w3.org/2000/svg" xmlns:xlink="http://www.w3.org/1999/xlink" xml:space="preserve" xmlns:serif="http://www.serif.com/" style="fill-rule:evenodd;clip-rule:evenodd;stroke-linejoin:round;stroke-miterlimit:2;"><circle cx="2083.333" cy="2083.333" r="2033.422" style="fill:#fff;fill-opacity:0.8;"/><rect x="1178.781" y="2492.293" width="113.082" height="973.261" style="fill:#1ca098;"/><path d="M1437.803,2492.293l-259.022,0l0,-1274.524l113.082,-0l0,1161.442l145.939,-0l0,113.082Z" style="fill:#1f4590;"/><path d="M2155.498,2492.293l-604.613,0l0,-113.082l539.325,-0l65.288,113.082Z" style="fill:#1f4590;"/><path d="M2134.702,2230.108l713.285,1235.446l-130.576,0l-713.285,-1235.446l-453.241,0l0,1235.446l-113.082,0l0,-2247.785l113.082,-0l0,899.257l627.579,0c11.114,-2.215 22.103,-4.777 32.956,-7.675c37.343,-9.972 73.069,-23.92 106.696,-41.362c170.323,-88.343 286.805,-266.319 286.805,-471.287c0,-148.377 -61.041,-282.609 -159.36,-378.934c-73.74,-72.244 -168.449,-123.165 -274.102,-142.736l-992.677,-0l0,-113.082l981.767,0c105.377,14.197 202.663,54.06 285.351,113.082c55.487,39.607 104.401,87.841 144.776,142.736c78.067,106.144 124.207,237.193 124.207,378.934c0,214.217 -105.389,404.013 -267.103,520.323c-23.718,17.059 -48.647,32.537 -74.633,46.279l73.44,127.201c-33.227,17.878 -67.883,33.438 -103.75,46.464l-74.823,-129.598c-31.675,10.048 -64.414,17.698 -98.003,22.736l-35.307,0Z" style="fill:#1ca098;"/><path d="M2446.586,2290.506c33.242,-17.886 65.054,-38.091 95.22,-60.398c44.977,-33.261 86.293,-71.195 123.227,-113.082c122.365,-138.775 196.639,-320.944 196.639,-520.323c-0,-137.328 -35.237,-266.492 -97.154,-378.934c-28.268,-51.335 -62.098,-99.185 -100.675,-142.736c-37.132,-41.92 -78.662,-79.856 -123.864,-113.082c-108.345,-79.641 -237.786,-132.226 -378.325,-147.755l-982.873,-0l0,-113.082l895.59,0c158.104,0 306.693,41.057 435.68,113.082c71.979,40.193 137.854,90.029 195.871,147.755c35.11,34.934 67.342,72.758 96.308,113.082c32.097,44.684 60.183,92.439 83.73,142.736c53.889,115.109 84.002,243.532 84.002,378.934c0,193.972 -61.799,373.624 -166.766,520.323c-28.844,40.311 -60.946,78.134 -95.922,113.082c-58.344,58.298 -124.683,108.597 -197.221,149.102c-3.088,1.724 -6.187,3.43 -9.296,5.119c-33.139,17.992 -67.537,33.953 -103.027,47.716c-40.172,15.579 -81.743,28.342 -124.471,38.046l-57.071,-98.85c43.569,-7.939 85.892,-19.468 126.65,-34.271c35.867,-13.026 70.523,-28.586 103.75,-46.464Z" style="fill:#1f4590;"/><path d="M2500.755,2384.329l624.245,1081.225l-130.576,0l-596.696,-1033.508c35.49,-13.763 69.889,-29.725 103.027,-47.716Z" style="fill:#1ca098;"/><path d="M2083.333,0c1149.823,0 2083.333,933.51 2083.333,2083.333c0,1149.823 -933.51,2083.333 -2083.333,2083.333c-1149.823,0 -2083.333,-933.51 -2083.333,-2083.333c0,-1149.823 933.51,-2083.333 2083.333,-2083.333Zm0,83.333c-1103.83,0 -2000,896.17 -2000,2000c0,1103.83 896.17,2000 2000,2000c1103.83,0 2000,-896.17 2000,-2000c0,-1103.83 -896.17,-2000 -2000,-2000Z" style="fill:#1ba098;"/><path d="M2083.333,202.596c1038.007,0 1880.738,842.73 1880.738,1880.738c0,1038.007 -842.73,1880.738 -1880.738,1880.738c-1038.007,0 -1880.738,-842.73 -1880.738,-1880.738c0,-1038.007 842.73,-1880.738 1880.738,-1880.738Zm0,83.333c-992.014,0 -1797.404,805.39 -1797.404,1797.404c0,992.014 805.39,1797.404 1797.404,1797.404c992.014,0 1797.404,-805.39 1797.404,-1797.404c0,-992.014 -805.39,-1797.404 -1797.404,-1797.404Z" style="fill:#1f4590;"/></svg>